<?xml version="1.0" encoding="UTF-8"?>
<!DOCTYPE svg PUBLIC "-//W3C//DTD SVG 1.1//EN" "http://www.w3.org/Graphics/SVG/1.1/DTD/svg11.dtd">
<!-- Creator: CorelDRAW X7 -->
<svg xmlns="http://www.w3.org/2000/svg" xml:space="preserve" width="137.073mm" height="72.6335mm" version="1.1" style="shape-rendering:geometricPrecision; text-rendering:geometricPrecision; image-rendering:optimizeQuality; fill-rule:evenodd; clip-rule:evenodd"
viewBox="0 0 11292 5984"
 xmlns:xlink="http://www.w3.org/1999/xlink">
 <defs>
  <style type="text/css">
   <![CDATA[
    .str0 {stroke:#FFF6B6;stroke-width:21.7895}
    .str14 {stroke:#FF7900;stroke-width:29.0554}
    .str1 {stroke:#2B2A29;stroke-width:14.5236}
    .str15 {stroke:white;stroke-width:14.5236}
    .str16 {stroke:#2B2A29;stroke-width:14.5236;stroke-dasharray:29.047138 72.617845}
    .str7 {stroke:#FF7900;stroke-width:58.119;stroke-linejoin:bevel}
    .str4 {stroke:#FF7900;stroke-width:58.119;stroke-linejoin:bevel}
    .str9 {stroke:#FF7900;stroke-width:58.119;stroke-linejoin:bevel}
    .str5 {stroke:#FF7900;stroke-width:58.119;stroke-linejoin:bevel}
    .str10 {stroke:#FF7900;stroke-width:58.119;stroke-linejoin:bevel}
    .str11 {stroke:#FF7900;stroke-width:58.119;stroke-linejoin:bevel}
    .str6 {stroke:#FF7900;stroke-width:58.119;stroke-linejoin:bevel}
    .str8 {stroke:#FF7900;stroke-width:58.119;stroke-linejoin:bevel}
    .str13 {stroke:#FF7900;stroke-width:58.119;stroke-linejoin:bevel}
    .str12 {stroke:#FF7900;stroke-width:58.119;stroke-linejoin:bevel}
    .str3 {stroke:#FF7900;stroke-width:58.119;stroke-linejoin:bevel}
    .str19 {stroke:#FF7900;stroke-width:58.119;stroke-linejoin:bevel}
    .str17 {stroke:#FF7900;stroke-width:58.119;stroke-linejoin:bevel}
    .str18 {stroke:#FF7900;stroke-width:58.119;stroke-linejoin:bevel}
    .str2 {stroke:#085EBD;stroke-width:58.119;stroke-linecap:round;stroke-linejoin:round}
    .fil5 {fill:none}
    .fil2 {fill:none;fill-rule:nonzero}
    .fil1 {fill:#D6D6D6}
    .fil3 {fill:#FF7900}
    .fil0 {fill:#FFF6B6}
    .fil4 {fill:white}
    .fil6 {fill:white}
    .fil7 {fill:#FF7900;fill-rule:nonzero}
    .fnt0 {font-weight:900;font-size:348.739px;font-family:'Arial Black'}
   ]]>
  </style>
 </defs>
 <g id="Plan_x0020_1">
  <metadata id="CorelCorpID_0Corel-Layer"/>
  <rect class="fil0 str0" x="6637" y="4487" width="4637" height="402"/>
  <polygon class="fil1 str1" points="9364,2263 10347,2263 11275,1335 8492,1335 8492,1644 7565,1644 7565,1335 6637,1335 7565,2262 8548,2262 8548,3559 7565,3559 6637,4487 11275,4487 10347,3559 9364,3559 "/>
  <path class="fil2 str2" d="M2568 3490l279 182 137 -198 -294 -176 -122 192zm1189 2464l2237 -3570 -1374 274 -353 550 -545 824 -357 553 392 1369zm-2315 -2589l353 -550 510 -828 353 -545 -392 -1413 -2237 3571 1413 -235zm0 0l-1413 235 3728 2354 -392 -1369 -507 -357 -871 -550 -545 -313zm3178 -707l1374 -274 -3728 -2355 392 1413 550 314 824 549 588 353zm-1930 640l-346 -130 -357 510 871 550 350 -506 -224 -248 -137 198 -279 -182 122 -192zm294 176l224 248 514 310 545 -824 -589 -350 354 -553 -824 -549 -350 549 -553 -318 -510 828 549 353 346 130 294 176zm1636 -816l-588 -353 -354 553 589 350 353 -550zm-898 1374l-514 -310 -350 506 507 357 357 -553zm-514 -2276l-550 -314 -353 545 553 318 350 -549zm-864 1412l-549 -353 -353 550 545 313 357 -510z"/>
  <g id="_2320240730784">
   <path class="fil3 str3" d="M2921 1845c0,97 -78,175 -174,175 -97,0 -175,-78 -175,-175 0,-96 78,-174 175,-174 96,0 174,78 174,174z"/>
   <text x="2634" y="1972"  class="fil4 fnt0">2</text>
  </g>
  <g id="_2320240734144">
   <path class="fil3 str4" d="M2164 1415c0,96 -78,174 -175,174 -96,0 -174,-78 -174,-174 0,-96 78,-175 174,-175 97,0 175,79 175,175z"/>
   <text x="1889" y="1542"  class="fil4 fnt0">1</text>
  </g>
  <g id="_2320240733984">
   <path class="fil3 str5" d="M3580 2281c0,96 -78,175 -174,175 -96,0 -174,-79 -174,-175 0,-96 78,-174 174,-174 96,0 174,78 174,174z"/>
   <text x="3291" y="2406"  class="fil4 fnt0">4</text>
  </g>
  <g id="_2320240734496">
   <path class="fil3 str6" d="M2245 4308c0,97 -78,175 -174,175 -96,0 -174,-78 -174,-175 0,-96 78,-174 174,-174 96,0 174,78 174,174z"/>
   <text x="1956" y="4431"  class="fil4 fnt0">3</text>
  </g>
  <g id="_2320240736128">
   <path class="fil3 str7" d="M5046 3137c0,96 -78,174 -174,174 -96,0 -174,-78 -174,-174 0,-97 78,-175 174,-175 96,0 174,78 174,175z"/>
   <text x="4756" y="3264"  class="fil4 fnt0">5</text>
  </g>
  <g id="_2320240736448">
   <path class="fil3 str8" d="M4065 1578c0,97 -78,175 -174,175 -96,0 -174,-78 -174,-175 0,-96 78,-174 174,-174 96,0 174,78 174,174z"/>
   <text x="3776" y="1701"  class="fil4 fnt0">3</text>
  </g>
  <g id="_2320240738208">
   <path class="fil3 str9" d="M2049 3240c0,97 -78,175 -174,175 -96,0 -175,-78 -175,-175 0,-96 79,-174 175,-174 96,0 174,78 174,174z"/>
   <text x="1762" y="3367"  class="fil4 fnt0">2</text>
  </g>
  <g id="_2320240737760">
   <path class="fil3 str10" d="M3450 4128c0,97 -78,175 -175,175 -96,0 -174,-78 -174,-175 0,-96 78,-174 174,-174 97,0 175,78 175,174z"/>
   <text x="3162" y="4255"  class="fil4 fnt0">2</text>
  </g>
  <g id="_2320240739232">
   <path class="fil3 str11" d="M4327 2744c0,97 -78,175 -174,175 -97,0 -175,-78 -175,-175 0,-96 78,-174 175,-174 96,0 174,78 174,174z"/>
   <text x="4039" y="2871"  class="fil4 fnt0">2</text>
  </g>
  <g id="_2320240740192">
   <path class="fil3 str12" d="M2534 3622c0,96 -78,174 -174,174 -97,0 -175,-78 -175,-174 0,-97 78,-175 175,-175 96,0 174,78 174,175z"/>
   <text x="2245" y="3746"  class="fil4 fnt0">4</text>
  </g>
  <g id="_2320240740544">
   <path class="fil3 str13" d="M3411 3257c0,96 -78,174 -174,174 -96,0 -174,-78 -174,-174 0,-97 78,-175 174,-175 96,0 174,78 174,175z"/>
   <text x="3122" y="3379"  class="fil4 fnt0">3</text>
  </g>
  <line class="fil5 str14" x1="2785" y1="3475" x2="3080" y2= "3332" />
  <g id="_2320240742272">
   <rect class="fil6 str15" x="7565" y="1135" width="111" height="3889"/>
   <line class="fil5 str16" x1="7565" y1="5024" x2="7565" y2= "1135" />
   <line class="fil5 str16" x1="7676" y1="5024" x2="7676" y2= "1135" />
  </g>
  <g id="_2320240741568">
   <rect class="fil6 str15" x="8436" y="1135" width="111" height="3889"/>
   <line class="fil5 str16" x1="8436" y1="5024" x2="8436" y2= "1135" />
   <line class="fil5 str16" x1="8548" y1="5024" x2="8548" y2= "1135" />
  </g>
  <g id="_2320240744544">
   <rect class="fil6 str15" x="9364" y="1135" width="111" height="3889"/>
   <line class="fil5 str16" x1="9364" y1="5024" x2="9364" y2= "1135" />
   <line class="fil5 str16" x1="9475" y1="5024" x2="9475" y2= "1135" />
  </g>
  <g id="_2320240744512">
   <rect class="fil6 str15" x="10236" y="1135" width="111" height="3889"/>
   <line class="fil5 str16" x1="10236" y1="5024" x2="10236" y2= "1135" />
   <line class="fil5 str16" x1="10347" y1="5024" x2="10347" y2= "1135" />
  </g>
  <g id="_2320240742848">
   <path class="fil3 str17" d="M7275 5323c0,96 -78,174 -174,174 -96,0 -174,-78 -174,-174 0,-97 78,-175 174,-175 96,0 174,78 174,175z"/>
   <text x="7001" y="5450"  class="fil4 fnt0">1</text>
  </g>
  <g id="_2320240744928">
   <path class="fil3 str18" d="M8203 5323c0,96 -78,174 -174,174 -97,0 -175,-78 -175,-174 0,-97 78,-175 175,-175 96,0 174,78 174,175z"/>
   <text x="7915" y="5450"  class="fil4 fnt0">2</text>
  </g>
  <g id="_2320240746016">
   <g>
    <path class="fil3" d="M10058 5323c0,96 -78,174 -175,174 -96,0 -174,-78 -174,-174 0,-97 78,-175 174,-175 97,0 175,78 175,175z"/>
    <path id="1" class="fil7" d="M9883 5526l0 -58 0 0 8 0 7 -1 8 -1 7 -1 7 -2 7 -2 6 -2 7 -3 6 -2 7 -4 6 -3 6 -4 5 -4 6 -4 5 -5 5 -5 5 -5 4 -5 5 -6 4 -5 4 -6 3 -6 3 -6 3 -7 3 -6 2 -7 2 -7 2 -7 1 -7 1 -8 0 -7 1 -7 58 0 0 10 -1 10 -2 11 -1 10 -3 9 -2 10 -4 10 -3 9 -4 9 -5 9 -5 8 -5 8 -6 8 -6 8 -6 7 -7 7 -7 7 -7 7 -8 6 -8 5 -8 6 -9 4 -8 5 -9 4 -10 4 -9 3 -10 3 -10 2 -10 2 -10 1 -10 1 -11 0 0 0zm-203 -203l58 0 0 0 0 7 1 7 1 8 1 7 2 7 2 7 2 7 2 6 3 7 4 6 3 6 4 6 4 5 4 6 5 5 5 5 5 5 5 5 5 4 6 4 6 4 6 3 6 4 7 2 6 3 7 2 7 2 7 2 7 1 7 1 8 1 7 0 0 58 -10 0 -10 -1 -11 -1 -10 -2 -9 -2 -10 -3 -10 -3 -9 -4 -9 -4 -9 -5 -8 -4 -8 -6 -8 -5 -8 -6 -7 -7 -7 -7 -7 -7 -7 -7 -6 -8 -5 -8 -6 -8 -4 -8 -5 -9 -4 -9 -4 -9 -3 -10 -3 -10 -2 -9 -2 -10 -1 -11 -1 -10 0 -10 0 0zm203 -204l0 58 0 0 -7 0 -8 1 -7 1 -7 1 -7 2 -7 2 -7 2 -6 3 -7 3 -6 3 -6 3 -6 4 -6 4 -5 4 -5 5 -5 5 -5 5 -5 5 -4 6 -4 5 -4 6 -3 6 -4 7 -3 6 -2 7 -2 6 -2 7 -2 7 -1 7 -1 8 -1 7 0 8 -58 0 0 -11 1 -10 1 -10 2 -10 2 -10 3 -10 3 -9 4 -10 4 -9 5 -8 4 -9 6 -8 5 -8 6 -8 7 -7 7 -7 7 -7 7 -6 8 -6 8 -6 8 -5 8 -5 9 -5 9 -4 9 -3 10 -4 10 -2 9 -3 10 -1 11 -2 10 -1 10 0 0 0zm204 204l-58 0 0 0 -1 -8 0 -7 -1 -8 -1 -7 -2 -7 -2 -7 -2 -6 -3 -7 -3 -6 -3 -7 -3 -6 -4 -6 -4 -5 -5 -6 -4 -5 -5 -5 -5 -5 -5 -5 -6 -4 -5 -4 -6 -4 -6 -3 -7 -3 -6 -3 -7 -3 -6 -2 -7 -2 -7 -2 -7 -1 -8 -1 -7 -1 -8 0 0 -58 11 0 10 1 10 2 10 1 10 3 10 2 9 4 10 3 9 4 8 5 9 5 8 5 8 6 8 6 7 6 7 7 7 7 6 7 6 8 6 8 5 8 5 9 5 8 4 9 3 10 4 9 2 10 3 10 1 10 2 10 1 10 0 11 0 0z"/>
   </g>
   <text x="9768" y="5447"  class="fil4 fnt0">4</text>
  </g>
  <g>
   <g>
    <path class="fil3" d="M9130 5323c0,96 -78,174 -174,174 -96,0 -174,-78 -174,-174 0,-97 78,-175 174,-175 96,0 174,78 174,175z"/>
    <path id="1" class="fil7" d="M8956 5526l0 -58 0 0 7 0 8 -1 7 -1 7 -1 7 -2 7 -2 7 -2 6 -3 7 -2 6 -4 6 -3 6 -4 6 -4 5 -4 6 -5 5 -5 4 -5 5 -5 4 -6 4 -5 4 -6 4 -6 3 -6 3 -7 2 -6 3 -7 2 -7 1 -7 2 -7 0 -8 1 -7 0 -7 58 0 0 10 -1 10 -1 11 -2 10 -2 9 -3 10 -3 10 -4 9 -4 9 -4 9 -5 8 -5 8 -6 8 -6 8 -6 7 -7 7 -7 7 -8 7 -7 6 -8 5 -9 6 -8 4 -9 5 -9 4 -9 4 -10 3 -9 3 -10 2 -10 2 -10 1 -11 1 -10 0 0 0zm-203 -203l58 0 0 0 0 7 0 7 1 8 2 7 1 7 2 7 2 7 3 6 3 7 3 6 4 6 3 6 4 5 5 6 4 5 5 5 5 5 6 5 5 4 6 4 6 4 6 3 6 4 6 2 7 3 7 2 7 2 7 2 7 1 7 1 7 1 8 0 0 58 -10 0 -11 -1 -10 -1 -10 -2 -10 -2 -10 -3 -9 -3 -9 -4 -9 -4 -9 -5 -9 -4 -8 -6 -8 -5 -7 -6 -8 -7 -7 -7 -7 -7 -6 -7 -6 -8 -6 -8 -5 -8 -5 -8 -4 -9 -4 -9 -4 -9 -3 -10 -3 -10 -2 -9 -2 -10 -1 -11 -1 -10 0 -10 0 0zm203 -204l0 58 0 0 -8 0 -7 1 -7 1 -7 1 -7 2 -7 2 -7 2 -7 3 -6 3 -6 3 -6 3 -6 4 -6 4 -5 4 -6 5 -5 5 -5 5 -4 5 -5 6 -4 5 -3 6 -4 6 -3 7 -3 6 -3 7 -2 6 -2 7 -1 7 -2 7 -1 8 0 7 0 8 -58 0 0 -11 1 -10 1 -10 2 -10 2 -10 3 -10 3 -9 4 -10 4 -9 4 -8 5 -9 5 -8 6 -8 6 -8 6 -7 7 -7 7 -7 8 -6 7 -6 8 -6 8 -5 9 -5 9 -5 9 -4 9 -3 9 -4 10 -2 10 -3 10 -1 10 -2 11 -1 10 0 0 0zm203 204l-58 0 0 0 0 -8 -1 -7 0 -8 -2 -7 -1 -7 -2 -7 -3 -6 -2 -7 -3 -6 -3 -7 -4 -6 -4 -6 -4 -5 -4 -6 -5 -5 -4 -5 -5 -5 -6 -5 -5 -4 -6 -4 -6 -4 -6 -3 -6 -3 -7 -3 -6 -3 -7 -2 -7 -2 -7 -2 -7 -1 -7 -1 -8 -1 -7 0 0 -58 10 0 11 1 10 2 10 1 10 3 9 2 10 4 9 3 9 4 9 5 8 5 9 5 8 6 7 6 8 6 7 7 7 7 6 7 6 8 6 8 5 8 5 9 4 8 4 9 4 10 3 9 3 10 2 10 2 10 1 10 1 10 0 11 0 0z"/>
   </g>
   <text x="8841" y="5445"  class="fil4 fnt0">3</text>
  </g>
  <g>
   <path class="fil3 str19" d="M10985 5323c0,96 -78,174 -174,174 -96,0 -175,-78 -175,-174 0,-97 79,-175 175,-175 96,0 174,78 174,175z"/>
   <text x="10695" y="5450"  class="fil4 fnt0">5</text>
  </g>
 </g>
</svg>
